# xmcd
#
# Track frame offsets:
#	182
#	16847
#	37500
#	51537
#	69595
#	93595
#	116932
#	134420
#	165012
#	190840
#	215907
#	233037
#	255880
#	270952
#	289882
#	307930
#
# Disc length: 4303 seconds
#
# Revision: 1
# Processed by: cddbd v1.5.1PL0 Copyright (c) Steve Scherf et al.
# Submitted via: audiograbber 1.83.01
#
DISCID=d710cd10
DTITLE=Pan Network - Beautiful Barbados
DYEAR=1993
DGENRE=Steel
TTITLE0=Calypso Medley
TTITLE1=Fire
TTITLE2=Beautiful Barbados
TTITLE3=Parkway
TTITLE4=Memory
TTITLE5=Tempo
TTITLE6=Island in the Sun
TTITLE7=Calypso 1 and 3
TTITLE8=Reggae Mix
TTITLE9=Quando Quando
TTITLE10=Classic Mix
TTITLE11=Lady in Red
TTITLE12=The Mad Woman Jamming
TTITLE13=Soca Mix
TTITLE14=Endless Vibrations
TTITLE15=Take My Breath Away
EXTD=
EXTT0=
EXTT1=
EXTT2=
EXTT3=
EXTT4=
EXTT5=
EXTT6=
EXTT7=
EXTT8=
EXTT9=
EXTT10=
EXTT11=
EXTT12=
EXTT13=
EXTT14=
EXTT15=
PLAYORDER=
